PathFileType	4	(X/Y/Z)	C:/Users/opensim2020/Desktop/walking_exp_matlab/subject02_walking12_straight_04.trc	
DataRate	CameraRate	NumFrames	NumMarkers	Units	OrigDataRate	OrigDataStartFrame	OrigNumFrames	
100.00	100.00	9	42	mm	100.00	1993	125	
Frame#	Time	LFHD			RFHD			LBHD			RBHD			C7			T10			CLAV			STRN			RBAK			LSHO			LUPA			LELB			LFRM			LWRA			LWRB			LFIN			RSHO			RUPA			RELB			RFRM			RWRA			RWRB			RFIN			LASI			RASI			LPSI			RPSI			LTHI			LKNE			LTIB			LANK			LHEE			LTOE			RTHI			RKNE			RTIB			RANK			RHEE			RTOE			*39			*40			*41			
		X1	Y1	Z1	X2	Y2	Z2	X3	Y3	Z3	X4	Y4	Z4	X5	Y5	Z5	X6	Y6	Z6	X7	Y7	Z7	X8	Y8	Z8	X9	Y9	Z9	X10	Y10	Z10	X11	Y11	Z11	X12	Y12	Z12	X13	Y13	Z13	X14	Y14	Z14	X15	Y15	Z15	X16	Y16	Z16	X17	Y17	Z17	X18	Y18	Z18	X19	Y19	Z19	X20	Y20	Z20	X21	Y21	Z21	X22	Y22	Z22	X23	Y23	Z23	X24	Y24	Z24	X25	Y25	Z25	X26	Y26	Z26	X27	Y27	Z27	X28	Y28	Z28	X29	Y29	Z29	X30	Y30	Z30	X31	Y31	Z31	X32	Y32	Z32	X33	Y33	Z33	X34	Y34	Z34	X35	Y35	Z35	X36	Y36	Z36	X37	Y37	Z37	X38	Y38	Z38	X39	Y39	Z39	X40	Y40	Z40	X41	Y41	Z41	X42	Y42	Z42	

1	0.000	1420.82837	756.48212	1751.99817	1279.19019	768.22803	1729.60071	1442.62561	877.09351	1664.41284	1303.69800	900.50488	1640.31738	1367.52808	932.84155	1529.94604	1370.12805	992.92572	1256.63831	1386.16675	795.53253	1461.14233	1386.26721	746.53442	1287.33557	1306.02441	992.26709	1355.95422	1549.48743	870.40192	1509.64844	1659.57117	865.79138	1323.68677	1700.34106	846.42468	1190.14612	1736.87830	810.19653	1068.23730	1727.76758	730.78375	953.08582	1762.56189	775.33917	952.95874	1778.05005	741.81610	897.99292	1187.11462	847.25488	1488.80823	1106.77808	871.75592	1295.49329	1098.33606	857.47852	1147.39124	1089.59473	828.99200	1029.49695	1122.21558	786.98328	903.92834	1082.38782	827.82568	899.14636	1088.39453	789.12207	837.45941	1532.23779	785.43036	995.57672	1281.65051	763.22400	977.24640	1428.87109	983.60602	1044.23877	1313.15796	979.46136	1037.48767	1577.96289	880.38495	686.01337	1550.83020	928.66089	486.32199	1553.62939	997.18121	303.18195	1520.39917	1004.82001	77.09830	1470.55115	1041.19153	48.95161	1534.45728	848.66443	37.92975	1216.70557	745.88464	681.83575	1262.11682	680.08344	494.73282	1264.89661	770.19958	331.66962	1307.29456	845.32281	156.66129	1368.01807	889.63251	112.22962	1292.16931	720.10498	63.03010	1339.58069	872.40680	1803.88464	-3357.27759	2845.89551	1034.27515			 
2	0.010	1422.31421	743.81317	1750.71338	1280.73621	755.93292	1727.93152	1444.68091	864.44482	1663.38306	1305.86438	888.29968	1638.88025	1370.17566	920.48523	1528.79041	1372.63965	980.98145	1255.54797	1388.49500	783.30847	1459.67590	1389.19849	734.75592	1286.01086	1309.19458	980.45538	1354.65320	1551.93494	857.43604	1509.00439	1663.66321	850.15051	1324.44727	1706.50513	826.61517	1191.98352	1743.85168	784.87585	1071.81262	1736.53772	699.49341	961.14154	1770.52173	744.72882	958.79248	1786.26050	708.76178	905.29016	1189.25537	835.15906	1486.68140	1109.40271	863.92645	1293.71326	1099.69080	851.95209	1145.98193	1089.91333	826.25922	1027.53979	1120.54590	787.20593	900.61273	1081.08411	829.07281	897.27246	1085.98816	791.29443	834.83215	1535.17456	775.11731	993.40308	1284.61987	750.50372	975.69617	1429.77063	972.43311	1043.28333	1314.02942	967.09009	1036.78687	1579.20898	873.42072	684.71729	1551.09216	924.21649	485.58780	1553.39014	994.83771	303.34732	1520.15015	1004.53162	77.41967	1470.32910	1041.13110	49.36967	1534.65332	848.66901	37.94310	1218.35938	730.39874	683.03650	1264.92383	663.88770	494.53711	1268.76453	743.76483	325.46472	1312.28516	806.76141	145.97081	1373.22241	847.98572	98.87666	1297.36731	675.43976	61.31577	1340.90381	859.71893	1802.38416	-3360.25708	2845.17920	1034.27869			 
3	0.020	1423.69458	731.06927	1749.25623	1282.24951	743.61676	1726.07007	1446.61011	851.80237	1662.19519	1307.99707	876.05023	1637.25659	1372.75842	908.09619	1527.35400	1375.02527	968.97986	1254.21570	1390.75500	770.89203	1458.06421	1391.80066	722.81860	1284.27612	1312.10522	968.51343	1353.12170	1554.23035	844.40442	1508.16577	1667.60901	834.74689	1325.07800	1712.43713	807.19458	1193.91125	1750.69482	760.08887	1075.81311	1744.13477	669.08661	969.58508	1777.73389	714.51434	964.89325	1793.87622	676.19684	913.07684	1191.69312	823.31567	1484.53882	1111.97534	855.14697	1291.97644	1101.47473	845.82062	1144.44128	1090.11560	823.42194	1025.73535	1119.10132	787.28802	897.43054	1079.63354	829.37927	895.59949	1083.54224	793.22028	832.41168	1537.83972	764.49945	991.21918	1286.99377	737.61737	973.71631	1430.73853	961.05524	1042.07507	1315.04846	954.47638	1035.72620	1580.24475	866.04999	683.11304	1551.33008	919.85358	484.92249	1553.18030	992.87976	303.76666	1519.73462	1004.22186	77.53880	1469.85938	1040.87903	49.69846	1534.86279	848.62408	38.03032	1220.28918	715.51392	683.62329	1267.52014	648.36237	493.79111	1271.93860	717.41949	319.25629	1316.24780	767.58826	135.93297	1378.02759	805.13733	86.67104	1301.93396	630.55194	60.63837	1342.57910	847.18384	1800.87317	-3360.33911	2845.27222	1034.18909			 
4	0.030	1424.91321	718.21887	1747.56873	1283.85181	731.39111	1724.13538	1448.53833	839.11456	1660.78394	1310.00134	863.75037	1635.43005	1375.14844	895.68250	1525.69116	1377.04797	956.80206	1252.65002	1392.89441	758.48633	1456.21777	1394.37317	710.72736	1282.21948	1314.83020	956.46729	1351.39490	1556.15979	831.18604	1507.08386	1671.27393	819.39935	1325.51501	1717.98596	788.04321	1195.68787	1756.97400	735.63287	1079.86658	1751.62366	639.13959	978.41272	1784.35046	684.85132	971.27728	1800.93188	644.21594	921.40509	1193.86853	811.36804	1482.10266	1114.51563	846.18042	1290.08923	1102.94812	839.84991	1142.97522	1090.19495	820.32800	1024.05347	1117.42505	787.16406	894.67426	1078.97302	830.14392	894.16327	1081.13428	794.96454	830.21082	1540.23926	753.76532	989.10455	1289.44165	725.01392	971.53680	1431.75537	949.38953	1040.52002	1316.14587	941.78009	1034.25928	1581.50378	858.68524	681.67804	1551.61218	915.55017	484.27707	1552.35718	990.67908	303.73721	1519.33838	1003.92419	77.84157	1469.08972	1040.41675	49.87949	1535.00122	848.45990	38.00412	1221.95911	700.87268	683.50317	1269.85034	633.31287	492.31604	1274.70288	690.87958	312.99945	1319.64490	727.75934	126.49067	1381.15869	762.14667	75.50157	1306.04224	585.55420	60.83438	1344.24084	834.71234	1799.30481	-3360.36426	2845.14941	1034.25146			 
5	0.040	1426.21521	705.49408	1745.76709	1285.10437	718.87134	1721.77942	1450.31238	826.40594	1659.11743	1311.91357	851.43353	1633.40393	1377.39893	883.18298	1523.74622	1378.87451	944.51392	1250.83740	1394.92310	745.89929	1454.21338	1396.66821	698.29089	1279.96106	1317.54163	944.22443	1349.41272	1558.16687	818.09308	1505.93555	1674.94373	804.19421	1325.92871	1723.39624	769.23468	1197.55273	1762.75964	711.52576	1083.93347	1758.61084	609.98474	987.88110	1790.43225	655.77087	977.95300	1807.24866	612.85449	930.00873	1195.73291	799.21576	1479.54126	1116.96167	838.07532	1288.25024	1103.93542	834.03394	1141.66101	1090.41577	817.87433	1022.24237	1115.48938	786.44629	891.82800	1077.61206	829.75977	892.91022	1078.96863	796.30420	828.19257	1542.28552	742.34106	986.78754	1291.45276	712.19147	969.14154	1432.75952	937.52020	1038.64233	1317.31726	929.10400	1032.41199	1582.87793	851.40302	680.49329	1551.89893	911.12048	483.73993	1552.06079	988.85559	304.29626	1518.83911	1003.58112	78.11842	1468.60535	1040.12463	50.40583	1535.06116	848.24371	37.84615	1224.20789	687.18707	682.89557	1273.03149	619.33301	490.56451	1276.82446	664.58954	307.28180	1321.74829	687.89404	118.61083	1382.87317	718.94366	65.35081	1309.09448	541.33502	62.91139	1345.59875	822.09222	1797.34143	-3357.30029	2845.79175	1034.43335			 
6	0.050	1427.65186	692.92181	1743.81934	1286.65271	706.57275	1719.50220	1452.04663	813.72144	1657.21155	1313.74023	839.01770	1631.23206	1379.48425	870.62903	1521.61243	1380.60535	932.08380	1248.74988	1396.48657	733.22363	1451.82471	1399.26172	686.07111	1277.85632	1319.55627	931.34833	1346.98108	1560.13940	805.10498	1504.69849	1677.99060	788.75354	1325.93213	1727.95544	750.40668	1198.92798	1768.16858	687.84186	1088.03345	1764.42224	581.57593	996.91956	1795.88501	627.27710	984.73413	1813.06274	582.21918	938.93195	1197.88562	787.37769	1477.08386	1119.30554	829.34058	1286.53345	1105.40918	827.62128	1140.32251	1090.08765	813.22498	1020.69958	1113.87756	785.82684	889.60315	1076.30493	829.22839	891.73035	1076.67188	797.59979	826.24011	1544.17053	730.51062	984.66150	1293.21362	699.20135	966.73047	1433.83813	925.49414	1036.41370	1318.63196	916.52362	1030.19666	1583.93433	843.70630	678.88788	1552.17603	906.40149	483.05038	1551.79468	986.75958	304.83691	1518.29724	1003.06586	78.36562	1468.02563	1039.77832	50.98918	1535.21497	848.08972	37.78464	1226.34033	673.52191	681.39642	1275.74182	606.01898	488.34821	1279.13818	638.46185	302.25970	1322.89270	648.04688	112.12658	1383.87073	675.61584	57.22397	1310.98120	497.55444	66.36404	1346.94958	809.50842	1795.20093	-3357.26025	2845.75464	1034.47717			 
7	0.060	1428.72192	680.12799	1741.50562	1287.95398	694.08411	1717.07556	1453.64392	800.98651	1655.08435	1315.47913	826.51215	1628.82886	1381.51221	858.03998	1519.25610	1382.74658	920.65479	1246.77979	1398.59949	720.56659	1449.56116	1401.54053	673.47601	1275.41382	1322.18359	919.08112	1344.54456	1561.78967	792.01007	1503.13416	1681.34595	773.61237	1326.07813	1732.65625	731.97919	1200.43469	1773.06909	664.55139	1092.08618	1770.15967	554.04517	1006.45258	1800.57166	599.37866	991.35608	1818.34094	552.28497	948.07391	1199.81274	775.29315	1474.34814	1121.55920	821.10724	1284.65125	1106.80933	821.00830	1138.72925	1090.29114	809.85809	1019.33447	1112.04456	784.48383	887.32092	1075.61926	828.71411	890.79089	1074.58472	798.49274	824.67957	1545.93494	718.81140	982.31366	1294.70642	686.11615	964.15344	1434.93347	913.38867	1033.87427	1319.99133	903.98029	1027.54382	1584.92993	835.94482	677.41779	1552.30261	901.08368	482.14148	1551.56543	983.93939	305.20538	1518.09058	1002.77020	79.12801	1467.45544	1039.38135	51.66982	1535.43115	847.95355	37.72454	1228.21753	660.46716	678.83661	1278.06238	592.74536	485.56323	1280.83997	612.86359	297.98166	1323.25061	608.40570	107.18429	1384.00342	632.56494	50.79254	1311.83691	454.86011	71.12280	1348.07153	796.82562	1792.74670	-3360.41650	2845.25049	1034.17444			 
8	0.070	1430.17236	667.59198	1739.28015	1289.03406	681.50916	1714.36340	1455.17188	788.25165	1652.76733	1317.09998	813.95880	1626.28235	1383.38477	845.41205	1516.71326	1383.69360	906.79395	1244.05615	1400.07178	707.57153	1446.93127	1403.63745	660.81201	1272.86340	1324.21863	906.20789	1341.89648	1563.26147	778.94391	1501.33777	1684.19678	758.26917	1325.82678	1736.31946	713.37390	1201.32275	1777.53223	641.56598	1096.05359	1775.28870	527.19366	1016.13196	1804.88672	572.12555	998.21729	1823.11438	523.10956	957.38232	1201.57336	763.22363	1471.63281	1123.31152	811.96875	1282.65076	1108.12756	814.18042	1137.29492	1090.24109	805.44965	1017.85394	1110.19580	782.59125	884.90955	1074.50964	827.25739	889.98169	1072.54883	798.92084	822.85468	1547.53430	706.98987	979.81378	1296.15308	672.84973	961.66064	1435.97717	901.15582	1031.06165	1321.39148	891.50085	1024.60364	1585.87927	827.97668	675.77716	1552.67822	895.57147	481.51709	1551.28394	980.49799	305.41315	1517.68860	1002.38037	79.71780	1466.69958	1038.88245	52.44933	1535.66797	847.76050	37.60371	1229.88977	648.29688	675.48431	1280.43628	579.93628	482.76709	1281.88696	587.23096	294.48032	1323.17920	569.72949	103.97693	1383.51990	590.92041	46.12518	1312.44531	413.70706	77.36464	1349.63440	784.42706	1790.43103	-3357.48950	2845.84570	1034.33337			 
9	0.080	1431.17676	654.77069	1736.80090	1290.43958	669.12732	1711.83801	1456.63538	775.51129	1650.30420	1318.51782	801.30695	1623.53894	1385.13940	832.67126	1514.01501	1385.06946	893.85657	1241.43713	1401.96130	694.75391	1444.47156	1405.48938	648.00348	1270.20410	1326.36938	893.51514	1339.13574	1564.43030	765.74371	1499.23206	1686.86121	742.86267	1325.42273	1740.14331	695.22290	1202.34778	1781.45496	618.99609	1099.98706	1779.65283	501.19739	1025.61353	1808.57129	545.48828	1005.09894	1827.27808	494.65433	966.80524	1203.00293	750.91956	1468.68469	1124.79041	802.92767	1281.02563	1109.42969	807.07227	1135.83130	1090.04590	801.00372	1016.53369	1108.74268	780.58630	882.93585	1073.65002	825.54968	889.26935	1070.86609	798.93250	821.56256	1549.12952	694.98535	977.21240	1297.44971	659.37726	959.20575	1436.85437	888.59821	1027.90515	1322.74365	878.70746	1021.31952	1586.88428	819.71716	674.03815	1552.90540	889.58478	480.66577	1550.95056	976.60956	305.48260	1517.22192	1001.78888	80.42656	1465.89917	1038.34985	53.40822	1535.84155	847.50378	37.42104	1231.32104	637.06897	671.13849	1282.34509	566.78107	479.78183	1281.85352	561.95819	291.66766	1322.66077	532.21027	102.25850	1382.44702	550.62933	43.13435	1313.07861	374.52209	85.10940	1350.89038	771.85223	1787.77380	-3357.39331	2845.79834	1034.33093			 
